<svg width="100" height="100" viewBox="0 0 100 100" fill="none" xmlns="http://www.w3.org/2000/svg">
<g clip-path="url(#clip0_206_79)">
<g clip-path="url(#clip1_206_79)">
<rect x="1.5" y="0.5" width="100" height="100" rx="10" fill="#7E22CE"/>
<path d="M37.0875 57.8003H54.3307C54.9101 57.8003 55.3957 57.6032 55.7875 57.2091C56.1794 56.8149 56.3754 56.3264 56.3754 55.7437C56.3754 55.161 56.1794 54.6766 55.7875 54.2903C55.3957 53.9041 54.9101 53.711 54.3307 53.711H37.0875C36.5082 53.711 36.0226 53.9081 35.6307 54.3023C35.2388 54.6965 35.0428 55.1849 35.0428 55.7676C35.0428 56.3503 35.2388 56.8348 35.6307 57.221C36.0226 57.6072 36.5082 57.8003 37.0875 57.8003ZM37.0875 48.9402H65.7126C66.292 48.9402 66.7776 48.7431 67.1695 48.3489C67.5613 47.9547 67.7573 47.4663 67.7573 46.8836C67.7573 46.3008 67.5613 45.8164 67.1695 45.4302C66.7776 45.044 66.292 44.8508 65.7126 44.8508H37.0875C36.5082 44.8508 36.0226 45.0479 35.6307 45.4421C35.2388 45.8363 35.0428 46.3247 35.0428 46.9074C35.0428 47.4902 35.2388 47.9746 35.6307 48.3608C36.0226 48.747 36.5082 48.9402 37.0875 48.9402ZM37.0875 40.08H65.7126C66.292 40.08 66.7776 39.8829 67.1695 39.4887C67.5613 39.0945 67.7573 38.6061 67.7573 38.0234C67.7573 37.4407 67.5613 36.9562 67.1695 36.57C66.7776 36.1838 66.292 35.9907 65.7126 35.9907H37.0875C36.5082 35.9907 36.0226 36.1878 35.6307 36.5819C35.2388 36.9761 35.0428 37.4646 35.0428 38.0473C35.0428 38.63 35.2388 39.1145 35.6307 39.5007C36.0226 39.8869 36.5082 40.08 37.0875 40.08ZM33.339 70.3409L27.9547 75.7251C26.9097 76.7702 25.7283 77.0194 24.4106 76.4727C23.093 75.9261 22.4341 74.9499 22.4341 73.5442V29.7204C22.4341 27.9273 23.0583 26.3999 24.3067 25.1383C25.5551 23.8765 27.0664 23.2457 28.8407 23.2457H73.9594C75.7525 23.2457 77.2799 23.8765 78.5415 25.1383C79.8033 26.3999 80.4341 27.9273 80.4341 29.7204V63.9343C80.4341 65.7086 79.8033 67.2199 78.5415 68.4683C77.2799 69.7167 75.7525 70.3409 73.9594 70.3409H33.339ZM31.5669 63.9343H73.9594V29.7204H28.8407V67.0694L31.5669 63.9343Z" fill="white"/>
</g>
<path d="M81.825 84L83.3 82.525C83.5 82.325 83.6 82.0917 83.6 81.825C83.6 81.5583 83.5 81.325 83.3 81.125C83.1 80.925 82.8627 80.825 82.588 80.825C82.3127 80.825 82.075 80.925 81.875 81.125L79.7 83.3C79.6 83.4 79.5293 83.5083 79.488 83.625C79.446 83.7417 79.425 83.8667 79.425 84C79.425 84.1333 79.446 84.2583 79.488 84.375C79.5293 84.4917 79.6 84.6 79.7 84.7L81.875 86.875C82.075 87.075 82.3127 87.175 82.588 87.175C82.8627 87.175 83.1 87.075 83.3 86.875C83.5 86.675 83.6 86.4417 83.6 86.175C83.6 85.9083 83.5 85.675 83.3 85.475L81.825 84ZM88.175 84L86.7 85.475C86.5 85.675 86.4 85.9083 86.4 86.175C86.4 86.4417 86.5 86.675 86.7 86.875C86.9 87.075 87.1377 87.175 87.413 87.175C87.6877 87.175 87.925 87.075 88.125 86.875L90.3 84.7C90.4 84.6 90.4707 84.4917 90.512 84.375C90.554 84.2583 90.575 84.1333 90.575 84C90.575 83.8667 90.554 83.7417 90.512 83.625C90.4707 83.5083 90.4 83.4 90.3 83.3L88.125 81.125C88.025 81.025 87.9127 80.95 87.788 80.9C87.6627 80.85 87.5377 80.825 87.413 80.825C87.2877 80.825 87.1627 80.85 87.038 80.9C86.9127 80.95 86.8 81.025 86.7 81.125C86.5 81.325 86.4 81.5583 86.4 81.825C86.4 82.0917 86.5 82.325 86.7 82.525L88.175 84ZM78 93C77.45 93 76.979 92.8043 76.587 92.413C76.1957 92.021 76 91.55 76 91V77C76 76.45 76.1957 75.979 76.587 75.587C76.979 75.1957 77.45 75 78 75H92C92.55 75 93.021 75.1957 93.413 75.587C93.8043 75.979 94 76.45 94 77V91C94 91.55 93.8043 92.021 93.413 92.413C93.021 92.8043 92.55 93 92 93H78Z" fill="#F5D0FE"/>
</g>
<defs>
<clipPath id="clip0_206_79">
<rect width="100" height="100" fill="white"/>
</clipPath>
<clipPath id="clip1_206_79">
<rect width="100" height="100" fill="white" transform="translate(1)"/>
</clipPath>
</defs>
</svg>
